<?xml version="1.0" standalone="no"?>
<!DOCTYPE svg PUBLIC "-//W3C//DTD SVG 20010904//EN"
 "http://www.w3.org/TR/2001/REC-SVG-20010904/DTD/svg10.dtd">
<svg version="1.0" xmlns="http://www.w3.org/2000/svg"
 width="7590.000000pt" height="7590.000000pt" viewBox="0 0 7590.000000 7590.000000"
 preserveAspectRatio="xMidYMid meet">

<g transform="translate(0.000000,7590.000000) scale(0.100000,-0.100000)"
fill="#000000" stroke="none">
<path d="M37270 75814 c-5576 -84 -10740 -977 -15575 -2694 -1998 -710 -4016
-1613 -5825 -2608 -2403 -1321 -4599 -2877 -6520 -4617 -642 -581 -1425 -1359
-1995 -1980 -4055 -4421 -6485 -9757 -7110 -15615 -84 -789 -136 -1596 -154
-2405 -5 -187 -9 -10572 -10 -23077 l-1 -22738 37870 0 37870 0 0 22673 c0
14425 -4 22825 -10 23092 -56 2429 -383 4673 -1006 6915 -1116 4010 -3182
7739 -6062 10937 -637 707 -1483 1556 -2192 2198 -2611 2366 -5712 4375 -9175
5945 -5202 2359 -11171 3708 -17440 3940 -734 27 -2026 44 -2665 34z m1880
-1844 c1100 -28 2021 -78 3070 -166 6705 -562 12926 -2473 18050 -5544 6564
-3934 11010 -9537 12810 -16146 526 -1930 817 -3899 890 -6019 6 -189 10
-6000 10 -16692 l0 -16403 -375 0 -375 0 0 16388 c0 10445 -4 16489 -10 16667
-45 1295 -161 2440 -366 3620 -806 4635 -2899 8860 -6165 12440 -576 632
-1279 1329 -1930 1916 -2584 2326 -5678 4276 -9144 5761 -4945 2119 -10497
3276 -16445 3427 -394 10 -2045 10 -2440 0 -4093 -103 -7986 -681 -11660
-1730 -6927 -1979 -12726 -5562 -16665 -10299 -2406 -2893 -4091 -6185 -4979
-9730 -443 -1764 -684 -3514 -746 -5405 -6 -193 -10 -6145 -10 -16677 l0
-16378 -375 0 -375 0 0 16403 c0 10692 4 16503 10 16692 77 2254 406 4362 996
6400 1244 4291 3617 8169 6984 11414 2685 2587 5932 4735 9651 6386 4162 1848
8834 3028 13774 3480 1160 106 2277 168 3555 198 314 8 1930 5 2260 -3z m205
-2589 c874 -29 1608 -68 2350 -127 4386 -344 8519 -1276 12280 -2771 5429
-2158 9896 -5441 12902 -9483 2217 -2981 3633 -6325 4212 -9947 164 -1022 259
-2052 291 -3158 6 -220 10 -6100 10 -16617 l0 -16278 -33450 0 -33450 0 1
16348 c1 8991 5 16462 10 16602 72 2324 446 4501 1136 6595 1498 4553 4434
8533 8623 11691 5649 4258 13228 6758 21585 7119 303 13 871 30 1275 39 291 6
1924 -4 2225 -13z m-26990 -60549 c474 -73 861 -234 1230 -510 522 -390 965
-998 1245 -1707 176 -445 288 -931 346 -1505 21 -210 30 -863 15 -1097 -55
-846 -251 -1579 -587 -2195 -480 -880 -1149 -1454 -1928 -1653 -549 -140
-1129 -123 -1653 50 -406 134 -747 348 -1079 680 -94 93 -218 229 -275 300
-515 651 -853 1541 -953 2515 -53 520 -46 1140 18 1636 101 772 348 1461 733
2049 172 262 311 436 511 639 449 456 968 722 1562 800 180 24 181 24 440 21
182 -3 279 -9 375 -23z m31270 18 c560 -51 1039 -243 1480 -595 139 -111 381
-355 507 -513 700 -877 1045 -2022 1022 -3397 -16 -930 -182 -1683 -524 -2380
-453 -922 -1136 -1551 -1932 -1781 -282 -81 -484 -108 -813 -108 -340 0 -576
33 -855 120 -440 137 -797 358 -1150 713 -185 185 -294 319 -439 536 -561 845
-832 1899 -808 3140 10 523 61 937 168 1373 194 795 587 1521 1113 2060 383
392 790 634 1273 758 120 30 348 69 463 77 106 8 393 6 495 -3z m20740 -14
c190 -22 308 -37 815 -106 769 -105 895 -119 1120 -126 l175 -6 205 46 c113
25 229 52 258 60 l52 14 7 -26 c13 -47 9 -461 -5 -542 -84 -477 -313 -849
-697 -1135 -256 -191 -565 -290 -848 -271 -329 23 -563 182 -740 506 l-36 65
45 69 c61 95 84 175 84 290 -1 270 -138 476 -405 606 -177 87 -357 114 -614
91 -308 -27 -524 -99 -700 -231 -206 -156 -323 -396 -352 -725 -19 -208 6
-365 82 -524 52 -110 109 -188 206 -283 121 -119 237 -200 419 -291 185 -93
288 -128 989 -342 812 -247 1398 -451 1629 -567 180 -90 420 -272 581 -439
464 -483 697 -1125 718 -1979 22 -938 -254 -1710 -804 -2246 -378 -367 -804
-566 -1319 -615 -392 -37 -887 47 -1600 271 -507 159 -815 221 -1110 221 -299
0 -488 -60 -626 -197 -74 -73 -137 -195 -156 -297 -7 -37 -17 -66 -23 -64 -21
7 -127 165 -175 262 -97 196 -147 405 -157 665 -15 409 103 722 369 976 233
223 478 328 793 341 275 11 545 -76 840 -273 143 -95 184 -130 650 -549 492
-443 575 -513 713 -606 485 -325 863 -302 1230 75 160 165 256 329 304 522 29
116 30 366 4 519 -72 405 -284 725 -642 965 -284 190 -344 213 -1892 721
l-973 319 -115 70 c-168 102 -292 198 -432 334 -196 192 -316 355 -432 591
-178 361 -254 727 -254 1220 1 534 96 963 306 1377 201 396 493 731 814 934
256 161 592 276 914 313 52 6 111 13 130 15 77 9 523 -4 655 -18z m-45091
-2573 c317 -1336 581 -2439 585 -2453 7 -22 10 -18 20 30 6 30 256 1133 554
2450 l543 2395 1027 3 1028 2 -57 -66 c-158 -187 -235 -383 -235 -598 0 -122
683 -7030 707 -7143 43 -214 160 -447 284 -568 22 -21 40 -43 40 -47 0 -4
-538 -8 -1196 -8 l-1195 0 57 73 c107 136 168 305 180 502 5 82 -41 681 -251
3280 -142 1749 -261 3183 -264 3187 -3 4 -341 -1551 -750 -3455 -410 -1904
-751 -3490 -759 -3525 l-14 -62 -356 2 -356 3 -800 3462 c-440 1905 -802 3460
-804 3458 -3 -3 -13 -181 -23 -397 -10 -216 -73 -1572 -140 -3013 -107 -2326
-120 -2632 -109 -2723 30 -271 152 -518 369 -745 l45 -47 -677 0 c-372 0 -677
4 -677 8 0 4 16 24 36 43 95 91 197 235 268 376 110 221 129 326 161 869 163
2803 358 6286 358 6424 1 151 -2 186 -21 255 -39 142 -113 279 -215 398 l-49
57 1054 0 1054 0 578 -2427z m10783 1267 c95 -635 172 -1163 170 -1173 -1 -12
-59 50 -172 185 -244 291 -313 366 -487 525 -680 627 -1356 1001 -2010 1113
-174 29 -293 33 -710 25 l-378 -7 0 -1610 0 -1609 47 68 c334 489 823 743
1431 743 165 0 296 -14 602 -65 644 -108 852 -112 1081 -24 130 50 257 148
352 269 l28 35 -6 -35 c-4 -19 -22 -97 -40 -172 -218 -875 -627 -1328 -1200
-1328 -181 0 -307 27 -655 141 -207 68 -400 119 -505 134 -81 12 -263 7 -355
-9 -330 -58 -575 -249 -739 -573 l-41 -83 0 -1660 0 -1660 404 0 c305 0 434 4
523 15 805 105 1621 673 2391 1668 166 214 258 349 445 652 101 165 203 329
226 365 l43 65 -6 -55 c-3 -30 -71 -759 -151 -1620 -80 -861 -148 -1571 -150
-1577 -3 -10 -595 -13 -2915 -13 -1600 0 -2910 4 -2910 8 0 5 14 21 31 38 76
72 160 216 204 349 58 179 55 -40 55 3821 -1 2227 -4 3567 -10 3614 -28 212
-105 390 -237 548 l-45 52 2758 -2 2758 -3 173 -1155z m8923 1155 c0 -8 339
-2283 345 -2320 6 -30 6 -30 -36 15 -23 25 -119 137 -214 250 -302 358 -651
676 -1051 955 -407 284 -873 493 -1289 580 -200 41 -340 49 -777 40 l-398 -7
0 -1611 c0 -886 4 -1607 8 -1602 5 6 34 46 65 90 262 378 626 610 1082 690
128 23 386 30 541 16 71 -7 246 -32 389 -56 611 -103 827 -111 1045 -38 137
46 307 170 385 282 15 23 29 40 31 38 2 -1 -8 -52 -22 -112 -182 -796 -495
-1250 -961 -1392 -81 -24 -103 -27 -263 -27 -159 -1 -186 2 -295 28 -66 15
-221 61 -345 101 -384 125 -481 146 -673 146 -425 -2 -746 -200 -937 -582
l-50 -101 0 -1538 c0 -993 4 -1574 10 -1639 13 -120 47 -248 95 -349 37 -79
120 -205 160 -242 14 -13 25 -27 25 -32 0 -4 -538 -8 -1196 -8 l-1195 0 49 58
c124 145 195 294 227 481 22 126 22 7226 0 7352 -33 192 -95 320 -248 516
l-19 23 2756 0 c1516 0 2756 -2 2756 -5z m13175 -5 c596 -32 836 -94 1065
-278 262 -209 414 -548 461 -1029 17 -171 6 -532 -19 -653 -99 -473 -363 -806
-820 -1034 -141 -70 -222 -99 -1223 -435 -525 -176 -976 -329 -1003 -339 l-49
-19 124 -7 c402 -23 727 -99 1019 -242 213 -104 363 -208 533 -373 165 -160
262 -289 344 -461 148 -309 289 -748 468 -1459 48 -190 107 -404 132 -475 93
-269 196 -450 329 -575 116 -111 240 -161 401 -161 l53 0 -21 -57 c-85 -231
-231 -466 -384 -618 -231 -231 -488 -345 -852 -376 -393 -33 -721 97 -1033
412 -137 138 -176 192 -215 302 -82 230 -217 858 -365 1702 -117 664 -181 911
-310 1182 -84 176 -157 283 -269 393 -99 98 -167 145 -268 185 -131 53 -310
70 -414 39 -146 -43 -267 -176 -299 -329 -7 -34 -10 -551 -8 -1600 l3 -1550
28 -100 c35 -131 111 -281 190 -380 l65 -80 -1191 -3 c-655 -1 -1192 0 -1195
3 -3 2 15 26 39 52 127 136 211 327 239 543 14 109 13 7134 -1 7235 -29 215
-118 414 -247 557 l-34 38 2268 0 c1384 0 2343 -4 2459 -10z m7850 -12 c7 -33
345 -2307 345 -2321 -1 -7 -11 0 -23 14 -12 14 -105 125 -207 245 -319 378
-635 669 -1048 962 -407 289 -902 514 -1316 597 -217 43 -307 48 -751 40 -225
-4 -411 -8 -413 -9 -1 -2 -1 -724 0 -1605 l3 -1602 65 93 c90 129 309 347 430
427 286 190 603 281 978 281 163 0 293 -14 602 -65 548 -91 748 -105 936 -66
200 41 366 143 478 292 25 34 46 56 46 49 0 -6 -14 -68 -30 -138 -67 -280
-144 -500 -245 -702 -151 -301 -368 -524 -603 -620 -134 -54 -194 -65 -372
-65 -203 0 -276 15 -604 121 -387 127 -518 155 -706 155 -424 -2 -735 -193
-929 -570 l-51 -99 0 -1661 0 -1661 404 0 c440 0 545 8 751 57 430 102 879
346 1311 713 153 131 457 438 607 613 271 318 453 570 679 937 96 157 198 321
227 365 l52 80 -5 -45 c-3 -25 -71 -754 -151 -1620 -81 -866 -148 -1581 -150
-1587 -4 -10 -595 -13 -2915 -13 -1600 0 -2910 3 -2910 6 0 3 20 28 44 55 129
143 211 337 235 552 15 135 15 7069 0 7204 -24 216 -102 400 -236 561 l-45 52
2756 0 2756 0 5 -22z m13905 16 c0 -3 23 -659 50 -1457 28 -799 49 -1474 48
-1501 l-3 -49 -84 184 c-98 213 -344 711 -421 849 -138 249 -311 520 -457 714
-238 315 -496 557 -710 665 -81 41 -223 81 -284 81 l-49 0 2 -3672 3 -3673 27
-100 c37 -133 112 -282 191 -380 l65 -80 -1191 -3 c-655 -1 -1192 0 -1195 3
-3 2 15 26 39 52 124 133 202 306 234 517 13 92 15 515 15 3720 l0 3616 -47 0
c-109 0 -286 -67 -424 -160 -294 -198 -633 -604 -939 -1126 -94 -160 -374
-718 -505 -1004 -49 -107 -93 -199 -97 -205 -5 -5 -6 26 -3 70 3 44 26 697 50
1450 25 754 48 1398 51 1433 l6 62 2814 0 c1548 0 2814 -3 2814 -6z m-69974
-36 c-113 -140 -160 -219 -202 -343 -58 -175 -57 -146 -61 -1209 l-4 -979 77
72 c276 258 541 358 871 330 59 -5 187 -25 283 -44 342 -68 519 -82 631 -49
81 24 172 78 245 146 l65 61 -3 746 c-4 743 -4 746 -27 829 -46 168 -110 294
-208 410 l-54 62 1196 0 1195 0 -63 -77 c-101 -126 -158 -242 -200 -411 l-21
-87 -4 -3570 c-2 -2584 0 -3597 8 -3669 25 -218 125 -443 249 -560 17 -17 31
-33 31 -38 0 -4 -538 -8 -1196 -8 l-1196 0 51 56 c103 113 163 225 208 389
l28 100 3 2504 2 2503 -67 -62 c-231 -211 -540 -322 -815 -291 -51 6 -230 33
-398 61 -503 83 -562 73 -780 -125 l-110 -100 0 -2135 c0 -1277 4 -2181 10
-2250 19 -234 92 -417 226 -576 30 -35 54 -66 54 -69 0 -3 -535 -5 -1190 -5
-654 0 -1190 3 -1190 6 0 4 25 33 55 65 99 108 166 243 208 424 l21 90 4 3535
c2 2415 0 3570 -8 3646 -5 60 -19 148 -31 195 -26 106 -113 286 -176 363 -26
32 -54 67 -62 77 -13 19 18 19 1179 19 l1193 0 -27 -32z"/>
<path d="M37550 65583 c-1116 -48 -1640 -120 -2355 -324 -874 -250 -1667 -605
-2129 -951 -346 -259 -383 -472 -138 -796 31 -41 62 -82 69 -91 6 -9 13 -34
15 -55 l3 -40 -75 -29 c-41 -16 -199 -64 -350 -108 -1158 -336 -2185 -713
-3207 -1178 -755 -342 -1256 -664 -1765 -1134 -154 -142 -239 -246 -289 -352
-85 -177 -67 -322 51 -428 61 -55 131 -83 260 -106 67 -11 95 -20 97 -31 2
-10 -134 -93 -428 -260 -822 -466 -1164 -704 -1505 -1044 -180 -181 -298 -331
-410 -523 -125 -214 -177 -360 -176 -498 0 -138 46 -221 168 -304 124 -84 235
-118 609 -186 138 -25 258 -49 268 -53 13 -5 -41 -43 -224 -157 -291 -181
-421 -277 -554 -410 -251 -250 -481 -606 -539 -835 -79 -312 -42 -658 95 -886
19 -32 89 -109 159 -178 436 -422 901 -667 1388 -731 247 -33 540 -17 1657 90
198 19 370 35 382 35 18 0 23 -9 33 -57 18 -88 66 -212 104 -269 108 -162 307
-227 741 -241 216 -6 363 4 543 38 304 58 655 200 981 396 l124 75 116 -42
c157 -57 356 -154 471 -231 186 -124 363 -332 441 -517 25 -59 33 -96 37 -158
4 -75 2 -86 -23 -133 -68 -124 -216 -160 -535 -130 -285 26 -647 94 -980 184
-824 223 -1240 315 -1788 395 -962 140 -2041 157 -2577 39 -192 -42 -260 -73
-328 -149 -61 -68 -81 -130 -74 -229 7 -99 32 -162 106 -266 34 -47 61 -88 61
-92 0 -3 -28 -35 -63 -72 -291 -309 -362 -580 -220 -840 113 -208 367 -438
628 -569 233 -116 488 -165 945 -179 373 -11 678 36 990 152 63 24 91 29 175
29 87 0 108 -3 160 -26 33 -14 119 -52 190 -83 443 -195 1081 -331 1613 -342
263 -6 380 3 605 48 264 52 508 145 779 296 207 115 435 229 663 330 343 153
494 190 734 180 170 -7 238 -24 486 -124 581 -233 931 -446 1210 -734 236
-243 780 -974 988 -1326 617 -1043 541 -2123 -203 -2908 -45 -47 -62 -75 -79
-128 -13 -38 -19 -72 -15 -77 25 -23 392 -61 534 -54 25 1 169 5 320 8 516 12
725 17 1045 27 183 6 525 7 800 3 264 -4 725 -8 1025 -8 477 -1 560 1 665 17
138 21 165 27 165 36 0 3 -44 56 -96 116 -369 423 -578 827 -656 1265 -20 114
-17 452 5 565 77 394 309 996 542 1405 74 130 263 412 357 532 414 529 953
951 1583 1241 295 136 451 172 700 164 324 -12 391 -38 1440 -571 427 -217
790 -286 1335 -257 421 23 715 67 1015 153 194 56 318 105 545 214 121 58 217
98 252 104 79 15 150 1 305 -59 300 -116 490 -151 810 -151 209 -1 389 18 613
61 362 71 588 182 818 403 236 226 322 386 322 596 0 192 -72 339 -272 561
l-69 77 56 104 c75 142 97 208 98 293 2 191 -145 279 -596 355 -241 41 -504
54 -922 47 -655 -12 -1209 -73 -1920 -213 -401 -79 -647 -139 -1365 -334 -294
-80 -644 -147 -965 -185 -303 -35 -443 -5 -510 109 -35 60 -42 133 -21 216 22
85 83 213 147 306 104 150 209 227 666 487 l222 127 113 -69 c572 -347 1120
-496 1663 -452 483 39 638 141 754 496 28 87 30 90 57 88 176 -15 771 -82 959
-108 506 -72 856 -65 1221 25 379 92 705 258 1019 515 276 227 407 414 463
660 23 101 23 402 -1 511 -60 282 -215 539 -513 853 -173 182 -288 270 -657
506 -76 48 -135 91 -130 95 4 5 109 31 233 59 509 117 673 189 742 329 50 102
17 368 -67 537 -45 91 -404 523 -605 729 -482 493 -1131 910 -1793 1149 -35
13 25 71 131 128 245 131 330 228 320 363 -9 111 -81 220 -258 395 -273 270
-553 493 -875 699 -611 389 -1334 724 -2390 1107 -635 230 -923 324 -1765 575
-261 77 -477 143 -479 146 -9 8 31 74 107 178 219 300 213 479 -23 705 -106
101 -228 186 -490 341 -532 314 -1057 519 -1860 725 -615 158 -1152 238 -1840
275 -166 9 -965 11 -1145 3z m-3615 -4848 c302 -25 1405 -141 1412 -149 11
-11 -12 -57 -31 -61 -18 -4 -446 -61 -1419 -190 -550 -72 -830 -148 -1127
-303 -69 -36 -143 -74 -165 -86 -29 -15 -59 -20 -110 -21 -59 0 -78 5 -123 30
-67 37 -147 123 -181 195 -66 142 -8 299 154 410 60 41 154 86 216 104 79 22
426 67 704 90 95 8 481 -3 670 -19z m9125 -5 c132 -9 212 -31 320 -85 81 -41
180 -107 219 -146 81 -80 105 -212 57 -314 -31 -67 -122 -164 -188 -200 -46
-26 -63 -30 -128 -29 -72 0 -81 3 -215 68 -373 181 -749 290 -1245 360 -284
40 -780 85 -1177 106 -179 9 -183 10 -250 43 -65 33 -66 35 -38 41 87 17 636
108 735 120 101 13 419 31 695 39 240 7 1105 5 1215 -3z m1640 -2920 c303 -19
569 -59 824 -125 159 -40 386 -113 386 -123 0 -11 -84 -74 -165 -123 -150 -91
-349 -160 -561 -195 -149 -25 -446 -25 -604 0 -358 55 -685 190 -940 387 -99
77 -156 127 -150 132 7 6 368 38 535 46 214 12 492 12 675 1z m-12380 -58 l65
-7 -78 -65 c-433 -359 -1015 -538 -1555 -479 -273 29 -567 123 -781 249 l-75
43 55 24 c176 79 517 172 759 207 91 13 156 20 380 40 69 6 1156 -5 1230 -12z
m10013 -1942 c367 -105 748 -298 1172 -593 182 -126 495 -361 492 -368 -1 -4
-42 -34 -92 -67 -340 -229 -566 -481 -995 -1112 -264 -389 -320 -464 -559
-750 -306 -366 -644 -714 -806 -828 -176 -124 -491 -290 -592 -311 -116 -24
-194 26 -236 151 -44 130 -61 471 -31 629 29 153 328 1026 606 1769 225 601
261 681 500 1105 144 254 184 313 240 351 89 62 151 67 301 24z m-8570 -28
c83 -37 129 -97 289 -382 82 -146 185 -337 228 -425 131 -266 542 -1396 795
-2182 99 -310 113 -392 95 -580 -22 -234 -70 -384 -139 -430 -27 -18 -48 -23
-98 -23 -60 0 -73 5 -207 73 -339 175 -691 432 -958 700 -269 271 -444 504
-883 1177 -275 422 -595 780 -904 1011 -75 57 -80 67 -57 123 34 81 479 412
801 597 222 127 597 295 781 348 87 26 189 23 257 -7z m5700 -1447 c98 -274
103 -295 132 -563 110 -1029 113 -1616 10 -2208 -40 -231 -105 -423 -257 -754
-39 -85 -87 -178 -105 -207 -19 -28 -97 -112 -174 -186 -135 -131 -140 -134
-153 -114 -106 169 -171 277 -199 334 -56 110 -134 396 -162 593 -18 126 -20
562 -5 810 54 843 255 1576 603 2197 68 120 216 328 227 316 4 -4 41 -102 83
-218z m-2847 -2 c129 -199 199 -335 294 -574 201 -508 314 -974 372 -1544 20
-195 16 -795 -6 -1000 -37 -351 -105 -560 -244 -754 -59 -82 -130 -166 -140
-166 -13 0 -274 277 -319 339 -192 260 -320 597 -375 986 -17 125 -17 1280 0
1635 27 531 34 580 146 995 69 255 64 246 137 249 24 1 39 -18 135 -166z
m9178 -2133 c389 -59 696 -178 834 -323 l33 -34 -23 -15 c-13 -9 -57 -32 -98
-53 -538 -271 -1586 -247 -2180 50 -89 44 -160 87 -160 97 0 15 133 101 221
143 151 71 357 123 594 150 181 21 598 13 779 -15z m-14940 -25 c169 -20 302
-48 432 -90 114 -37 257 -108 314 -155 l34 -28 -37 -45 c-107 -131 -256 -193
-603 -251 -294 -49 -415 -59 -684 -59 -434 1 -775 65 -1061 199 -97 46 -99 48
-82 67 53 58 219 154 373 215 155 61 396 118 600 141 52 6 109 13 125 15 90
10 473 5 589 -9z"/>
<path d="M18200 53250 c-242 -10 -563 -26 -855 -42 -115 -6 -532 -12 -925 -13
-665 -1 -729 -3 -915 -23 -739 -82 -1084 -175 -1386 -374 -122 -81 -301 -257
-357 -353 -122 -210 -90 -393 110 -622 37 -43 68 -81 68 -84 0 -3 -86 -101
-190 -217 -173 -192 -193 -211 -218 -207 -188 32 -255 31 -382 -5 -181 -53
-277 -63 -520 -57 -129 3 -279 14 -375 26 -563 74 -982 68 -1775 -25 -886
-104 -1241 -199 -1643 -437 -394 -234 -570 -427 -645 -706 -23 -88 -25 -114
-26 -306 -1 -115 2 -233 7 -260 l7 -51 -317 -296 c-547 -510 -638 -606 -753
-793 -143 -232 -235 -527 -284 -913 -27 -208 -19 -296 34 -411 42 -89 142
-184 317 -301 l143 -95 0 -93 c0 -198 33 -380 90 -494 84 -169 203 -259 409
-311 78 -19 114 -21 396 -22 281 -1 320 -3 411 -23 214 -46 420 -134 716 -305
197 -114 266 -149 413 -212 617 -263 1295 -327 2020 -188 664 126 738 136
1050 136 257 1 388 -12 616 -58 508 -103 1004 -339 1451 -689 43 -34 78 -65
78 -70 0 -5 -96 -106 -213 -225 -307 -311 -353 -370 -467 -599 -170 -341 -293
-693 -379 -1082 -68 -302 -145 -493 -283 -699 -215 -318 -646 -670 -898 -732
-91 -23 -277 -16 -390 14 -52 13 -110 31 -129 39 l-34 14 214 83 c256 100 413
173 500 231 299 203 312 497 32 697 -140 100 -558 291 -801 367 -306 96 -737
174 -1152 210 -308 27 -554 36 -1012 36 -479 0 -565 -6 -803 -55 -388 -80
-634 -180 -781 -317 -106 -100 -130 -156 -163 -386 -11 -72 -22 -136 -26 -141
-3 -6 -119 -113 -258 -239 -344 -312 -468 -446 -523 -566 -80 -176 -26 -344
150 -465 119 -82 352 -174 592 -234 186 -47 300 -65 478 -77 274 -18 559 11
941 98 565 129 832 163 1278 162 366 0 581 -24 952 -105 329 -72 457 -91 665
-98 298 -11 554 39 855 168 672 287 1102 658 1345 1160 104 213 161 409 205
693 46 302 134 493 302 654 183 176 443 252 695 204 226 -44 402 -150 637
-386 282 -282 472 -553 731 -1045 133 -252 237 -416 399 -630 138 -182 295
-344 508 -521 197 -166 279 -251 368 -384 141 -210 226 -440 280 -754 14 -82
29 -142 37 -147 23 -14 107 -29 166 -29 85 0 129 16 184 67 62 59 104 146 161
331 24 78 46 144 49 147 3 3 61 -114 129 -260 l124 -265 55 0 c31 0 188 9 350
19 470 31 581 33 1020 22 741 -20 1843 -58 2720 -92 330 -13 420 -10 476 19
115 59 91 195 -115 666 -56 126 -99 232 -96 234 9 9 121 -40 191 -83 91 -57
191 -157 259 -259 29 -45 97 -164 150 -266 100 -190 181 -325 212 -352 16 -14
46 -14 298 1 l280 16 -3 45 c-10 187 -63 342 -204 604 -357 660 -942 1184
-1727 1546 -319 148 -598 247 -1286 459 -660 203 -752 239 -947 370 -363 245
-620 615 -702 1015 -38 179 -30 433 20 656 162 725 779 1237 1593 1321 135 14
399 7 546 -15 55 -8 201 -26 325 -40 824 -93 1345 -59 1815 117 170 64 233 92
562 248 448 213 648 291 933 368 357 95 614 116 1185 97 309 -10 357 -3 503
70 194 97 349 292 397 497 8 34 19 102 24 152 26 227 -48 364 -278 517 -60 39
-243 138 -418 225 -172 85 -313 156 -313 158 0 2 44 93 99 203 119 242 142
318 149 493 10 259 -69 463 -246 637 -140 138 -292 221 -997 549 -159 74 -291
135 -292 137 -2 2 10 44 27 93 16 50 37 134 46 189 22 127 10 216 -43 324 -94
192 -507 506 -810 614 -121 43 -525 139 -985 235 -364 77 -750 151 -780 151
-5 0 -8 15 -8 34 0 49 -37 262 -56 321 -27 84 -74 162 -128 213 -89 84 -254
168 -446 226 -91 27 -435 90 -720 130 -492 71 -827 53 -1158 -61 -41 -13 -75
-23 -78 -21 -2 3 -11 42 -20 89 -82 441 -320 702 -788 865 -262 92 -582 155
-949 189 -197 19 -792 27 -1077 15z m660 -3105 c120 -32 240 -77 240 -89 0 -5
-26 -48 -58 -95 -135 -198 -182 -304 -182 -410 0 -72 9 -98 51 -145 70 -81
173 -105 444 -106 236 0 497 -16 587 -35 93 -19 171 -58 200 -98 34 -47 37
-166 8 -283 -110 -442 -384 -741 -774 -843 -127 -33 -227 -45 -391 -44 -585 2
-1067 265 -1386 757 -66 101 -154 275 -198 388 l-29 78 641 2 642 3 -1 86 c-4
225 -88 374 -338 596 -72 64 -133 120 -134 125 -5 10 138 77 228 106 146 48
287 50 450 7z m-2711 -1400 c109 -21 251 -71 423 -151 688 -316 1220 -780
1582 -1379 158 -263 315 -626 356 -825 26 -123 30 -305 10 -420 -51 -302 -225
-569 -488 -748 -137 -94 -152 -99 -342 -111 -512 -34 -834 10 -1115 151 -154
78 -278 178 -437 355 -252 279 -561 716 -669 948 -93 198 -118 445 -88 870 16
232 33 266 170 331 204 98 307 221 332 400 15 101 -9 232 -69 382 -25 63 -48
129 -51 147 -5 32 -4 34 33 44 97 25 240 27 353 6z m5226 -225 c303 -96 534
-346 653 -706 38 -113 152 -571 152 -609 0 -56 -32 -239 -56 -323 -75 -259
-280 -590 -490 -792 -135 -130 -274 -211 -416 -245 -93 -22 -257 -19 -354 5
-104 27 -260 104 -359 178 -95 71 -252 231 -317 322 -107 151 -183 337 -214
525 -23 146 -15 402 19 545 72 303 209 558 412 765 179 184 396 311 606 355
78 16 285 5 364 -20z m2120 -520 c123 -18 227 -49 332 -101 56 -27 107 -57
114 -65 11 -13 -6 -34 -107 -137 -302 -307 -378 -397 -439 -517 -70 -139 -94
-270 -71 -397 42 -241 237 -414 531 -474 171 -34 298 -41 893 -48 l593 -6 -42
-62 c-57 -86 -182 -203 -275 -257 -137 -80 -326 -135 -589 -172 -162 -22 -446
-15 -590 16 -336 71 -664 238 -995 507 -147 120 -219 228 -248 375 -14 74 -14
85 7 220 21 130 109 611 179 970 l27 143 110 6 c195 9 498 9 570 -1z m-9945
-280 c230 -28 453 -109 602 -220 148 -110 278 -335 353 -610 32 -114 45 -322
26 -410 -33 -154 -151 -296 -312 -374 -141 -68 -242 -89 -424 -90 -255 -1
-471 63 -670 197 -60 41 -165 134 -165 146 0 15 93 50 172 65 153 29 255 72
306 130 63 72 57 164 -22 321 -145 288 -381 516 -688 665 -67 33 -115 61 -107
64 28 10 256 65 339 81 204 41 428 54 590 35z m-1722 -1291 c114 -12 233 -36
245 -48 18 -18 20 -135 3 -201 -21 -80 -55 -139 -120 -209 -156 -166 -426
-302 -711 -358 -140 -27 -425 -25 -573 5 -306 62 -563 191 -775 392 -53 51
-97 98 -97 104 0 14 90 58 205 101 232 88 671 174 1060 209 185 17 632 20 763
5z"/>
<path d="M56840 53249 c-645 -32 -1191 -167 -1512 -374 -87 -57 -228 -196
-283 -280 -75 -115 -140 -305 -161 -468 -4 -41 -8 -47 -22 -41 -206 89 -542
143 -802 130 -213 -12 -637 -68 -1053 -141 -421 -74 -618 -272 -708 -711 -12
-60 -25 -112 -28 -116 -10 -11 -291 -56 -524 -82 -430 -50 -704 -107 -1006
-211 -407 -140 -723 -343 -923 -594 -118 -148 -137 -215 -138 -486 -1 -104 -4
-208 -8 -230 l-7 -40 -295 -127 c-441 -191 -609 -279 -775 -403 -354 -267
-483 -611 -368 -980 34 -108 119 -271 198 -378 36 -48 65 -89 65 -91 0 -2 -57
-25 -127 -51 -282 -105 -602 -279 -729 -398 -124 -116 -185 -226 -202 -369
-18 -144 21 -301 110 -438 23 -36 85 -108 138 -161 83 -83 109 -103 191 -142
166 -81 246 -88 604 -56 239 21 577 -1 855 -57 358 -71 693 -190 1150 -409
324 -155 538 -234 913 -335 528 -143 896 -146 1682 -14 526 88 925 38 1357
-173 193 -94 313 -177 449 -313 232 -231 382 -517 451 -862 32 -162 33 -453 0
-613 -53 -266 -157 -480 -330 -682 -118 -138 -369 -316 -617 -438 -250 -123
-459 -199 -885 -320 -669 -189 -1110 -371 -1543 -636 -676 -414 -1129 -909
-1382 -1508 -22 -54 -108 -371 -102 -377 12 -12 320 -86 377 -91 106 -8 151 7
214 70 49 49 80 98 246 392 160 284 276 423 384 464 69 26 156 38 156 22 0
-30 -50 -153 -130 -321 -49 -102 -96 -214 -105 -249 -21 -82 -21 -205 -1 -276
l17 -55 112 5 c454 23 1858 87 2102 96 395 16 1397 16 1685 1 204 -11 499 -33
670 -48 l65 -6 136 277 135 278 80 -264 81 -264 139 -12 c76 -6 173 -13 214
-15 l75 -3 7 115 c13 219 73 437 174 628 129 246 287 428 598 692 407 345 647
665 815 1088 167 419 444 787 856 1139 135 115 296 199 439 230 237 50 548
-46 744 -230 149 -141 223 -305 297 -657 20 -96 52 -224 71 -286 192 -636 631
-1155 1219 -1444 336 -165 671 -242 1055 -243 213 0 321 11 650 69 739 130
816 139 1134 131 192 -5 252 -10 356 -31 328 -66 990 -188 1115 -206 606 -84
1113 -27 1530 174 178 86 277 171 327 282 31 68 30 186 -1 267 -57 147 -211
318 -481 537 -85 69 -194 159 -243 200 l-89 75 -2 170 c-1 147 -4 177 -23 222
-73 182 -235 272 -683 381 -393 96 -792 142 -1240 142 -360 0 -586 -17 -1090
-80 -771 -98 -1150 -212 -1569 -472 -213 -133 -285 -233 -285 -398 1 -259 135
-384 586 -545 114 -41 178 -71 278 -133 91 -55 126 -81 115 -86 -9 -3 -119 -6
-245 -6 -349 0 -458 26 -651 158 -478 326 -763 722 -879 1222 -145 626 -215
846 -356 1122 -167 326 -416 598 -706 770 -37 22 -70 44 -73 48 -4 7 157 125
315 231 314 210 721 409 1031 502 286 87 479 117 786 124 341 8 513 -13 994
-117 125 -27 289 -58 365 -69 586 -86 1152 -23 1679 186 77 30 286 129 465
219 363 182 542 259 723 308 215 59 303 69 574 68 210 -1 251 1 318 18 200 51
337 185 404 394 38 119 51 216 51 389 l0 142 67 25 c97 36 234 130 292 200 58
69 104 159 128 250 24 89 24 321 -1 445 -68 351 -167 611 -320 840 -114 169
-231 289 -763 784 -150 139 -273 254 -273 256 0 2 9 41 20 87 30 122 37 310
15 423 -36 195 -114 336 -274 496 -134 133 -276 229 -511 343 -310 150 -461
196 -980 300 -658 131 -983 175 -1377 183 -436 10 -735 -28 -1100 -139 l-102
-31 -553 103 c-304 56 -561 107 -570 114 -24 16 -308 333 -308 344 0 5 25 40
56 78 81 101 143 204 171 286 34 98 31 207 -9 288 -97 197 -462 477 -753 577
-129 44 -698 139 -1095 182 -477 52 -872 69 -1965 86 -214 3 -529 10 -700 15
-352 11 -610 10 -835 -1z m660 -3098 c92 -21 240 -69 253 -81 5 -4 -58 -68
-140 -143 -206 -187 -278 -278 -327 -409 -20 -54 -46 -190 -46 -244 0 -22 98
-28 520 -29 451 -1 503 -6 663 -55 81 -25 81 -24 31 -158 -85 -228 -187 -386
-359 -558 -187 -187 -387 -310 -644 -394 -445 -146 -919 -106 -1235 104 -107
71 -237 208 -295 311 -105 184 -145 351 -139 586 1 81 6 150 10 154 3 4 132
18 285 31 153 13 322 28 376 34 53 6 101 9 106 6 18 -12 270 -7 310 5 85 25
162 119 181 219 19 100 -16 187 -140 350 -61 81 -83 119 -94 163 -6 27 -3 29
56 56 82 37 125 50 212 67 97 18 305 11 416 -15z m2650 -1383 c0 -7 -21 -92
-45 -188 -129 -506 -103 -598 231 -800 59 -36 114 -72 124 -81 35 -33 71 -291
71 -513 0 -382 -105 -727 -324 -1063 -170 -261 -457 -569 -707 -759 -328 -249
-779 -332 -1345 -248 -122 18 -180 36 -265 81 -171 92 -315 255 -420 476 -96
200 -132 435 -96 613 18 91 103 351 163 499 199 489 477 887 823 1177 202 169
608 420 981 608 267 133 303 144 594 184 207 29 215 29 215 14z m-5210 -239
c100 -23 278 -108 364 -173 324 -247 531 -563 603 -921 14 -73 18 -141 18
-360 0 -267 -1 -271 -28 -360 -107 -347 -359 -637 -691 -796 -223 -106 -450
-119 -640 -35 -220 97 -513 411 -663 710 -209 415 -202 894 18 1344 240 488
590 691 1019 591z m-1865 -531 c6 -6 144 -633 174 -788 82 -422 80 -514 -9
-696 -31 -63 -56 -96 -113 -151 -313 -297 -686 -499 -1077 -584 -92 -20 -134
-23 -335 -24 -247 0 -310 8 -500 62 -116 33 -296 106 -360 145 -77 47 -284
211 -284 226 -1 7 6 26 13 41 l15 28 513 7 c515 7 808 18 927 37 158 25 325
107 407 202 156 181 190 446 83 662 -45 93 -102 161 -306 374 -104 108 -208
217 -232 243 l-42 47 76 44 c41 25 119 59 171 76 163 54 232 61 573 56 167 -2
305 -6 306 -7z m9845 -302 c128 -24 376 -88 387 -100 3 -3 -3 -9 -13 -12 -344
-121 -597 -338 -797 -684 -69 -120 -96 -255 -63 -319 23 -43 79 -87 142 -111
56 -21 95 -29 292 -65 50 -10 92 -21 92 -25 0 -4 -30 -36 -67 -70 -381 -357
-1051 -401 -1364 -90 -111 110 -158 239 -159 433 0 281 126 576 336 783 131
129 259 199 457 249 158 39 207 44 422 41 164 -3 224 -8 335 -30z m1705 -1256
c431 -25 875 -99 1311 -219 99 -27 190 -53 202 -58 23 -9 19 -14 -75 -104
-252 -239 -558 -394 -886 -451 -104 -17 -148 -19 -297 -15 -185 6 -274 21
-425 72 -116 39 -277 125 -385 206 -204 153 -221 182 -228 407 l-5 152 39 1
c22 1 89 5 149 9 172 11 414 11 600 0z"/>
<path d="M35830 45599 c-553 -4 -1084 -13 -1180 -18 -214 -11 -620 -77 -620
-99 0 -39 53 -268 69 -300 43 -84 72 -93 456 -143 370 -47 525 -75 711 -130
383 -112 655 -260 869 -474 154 -154 273 -336 327 -500 34 -104 32 -246 -4
-333 -52 -125 -89 -173 -314 -402 -122 -124 -229 -241 -239 -260 -25 -47 -26
-134 -1 -182 10 -21 56 -79 103 -130 221 -240 319 -475 368 -883 16 -138 45
-538 39 -544 -1 -2 -85 26 -186 62 -406 145 -696 199 -1068 201 -291 0 -472
-27 -731 -110 -606 -195 -1079 -547 -1371 -1020 -208 -337 -730 -1382 -903
-1809 -85 -209 -159 -424 -260 -761 -148 -490 -243 -739 -425 -1109 -433 -881
-1055 -1619 -1891 -2245 -413 -309 -780 -522 -1084 -630 -243 -85 -781 -186
-1240 -231 -172 -17 -713 -18 -875 -1 -324 34 -614 93 -880 181 -621 206 -963
492 -1339 1120 -277 462 -460 1015 -478 1441 -15 363 94 652 336 890 157 154
359 275 671 398 380 151 734 238 1615 396 383 69 477 93 539 135 76 51 102
146 92 340 -4 69 -8 126 -9 127 -1 1 -54 8 -117 16 -91 10 -312 12 -1050 10
-514 -2 -956 -5 -981 -7 -80 -6 -2142 -20 -2954 -20 -429 0 -1160 5 -1625 10
-465 6 -1047 10 -1295 10 -449 0 -450 0 -501 -23 -28 -13 -70 -43 -94 -67
l-43 -44 34 -98 c52 -150 107 -252 156 -289 56 -42 115 -51 428 -64 344 -14
511 -38 794 -111 192 -49 384 -121 566 -209 495 -242 716 -469 757 -776 20
-148 -17 -334 -108 -536 -90 -200 -104 -322 -49 -433 43 -88 114 -143 329
-252 218 -111 335 -186 421 -270 117 -114 414 -544 765 -1108 284 -455 390
-612 564 -825 288 -353 605 -643 971 -887 944 -629 2055 -914 3550 -913 477 1
705 36 1185 185 715 220 1350 514 1909 882 374 246 650 471 977 798 235 234
321 330 544 606 153 190 454 492 658 663 232 193 280 220 632 351 260 98 346
142 408 210 98 107 96 192 -10 485 -94 258 -119 416 -119 755 0 345 40 622
136 940 75 246 198 528 317 725 240 397 594 681 975 781 101 27 305 36 408 20
273 -44 485 -199 600 -436 69 -142 80 -194 79 -380 0 -144 -3 -169 -27 -250
-36 -118 -130 -308 -209 -420 -77 -110 -270 -306 -398 -405 -157 -121 -416
-286 -575 -367 -259 -131 -353 -204 -404 -313 -35 -74 -36 -174 -2 -243 53
-109 132 -171 446 -352 346 -199 534 -366 722 -641 208 -305 313 -652 313
-1027 -1 -279 -58 -537 -178 -797 -52 -113 -186 -336 -261 -435 -71 -93 -153
-250 -182 -350 -14 -48 -22 -111 -26 -200 -9 -226 36 -378 198 -672 141 -255
271 -567 410 -983 277 -832 377 -1686 395 -3365 13 -1153 -44 -2334 -172
-3540 -137 -1301 -255 -1967 -481 -2700 -410 -1338 -1185 -2465 -2377 -3459
-147 -122 -286 -228 -533 -405 -177 -127 -277 -205 -474 -372 -319 -270 -739
-552 -1169 -786 -385 -210 -846 -422 -1945 -895 -319 -137 -614 -267 -655
-290 -196 -105 -322 -258 -376 -459 -31 -114 -23 -328 17 -456 l11 -33 9718 0
9718 0 7 87 c10 111 0 278 -21 379 -48 233 -161 389 -353 488 -241 124 -750
345 -1326 576 -969 389 -1149 486 -1967 1063 -789 557 -913 645 -1052 745
-544 392 -1068 888 -1474 1395 -570 713 -1000 1551 -1267 2467 -271 931 -427
1908 -555 3470 -89 1088 -110 1608 -105 2595 4 683 8 846 40 1360 60 975 173
1649 371 2226 78 226 151 394 307 701 193 381 241 541 241 808 1 283 -81 518
-295 845 -192 293 -283 546 -310 861 -25 291 37 621 170 899 168 352 433 640
773 842 57 33 162 95 234 137 157 93 232 150 279 214 104 142 83 287 -60 421
-71 66 -139 108 -325 201 -138 69 -284 157 -434 263 -395 279 -652 607 -748
955 -29 104 -31 335 -4 432 114 414 491 653 943 601 301 -35 539 -156 778
-396 294 -294 523 -694 644 -1125 77 -273 109 -494 118 -810 9 -349 -15 -555
-109 -930 -63 -250 -68 -335 -28 -415 41 -80 111 -120 338 -194 283 -92 447
-169 643 -302 209 -143 370 -301 622 -609 83 -102 196 -237 251 -300 133 -152
489 -513 648 -657 1045 -946 2155 -1472 3408 -1617 627 -73 1403 -36 2067 99
1067 215 1906 639 2564 1295 323 323 534 606 813 1094 141 245 222 375 370
591 126 184 400 550 460 614 91 96 204 169 419 267 199 91 295 163 345 259 21
41 26 64 26 125 0 88 -15 138 -90 302 -78 169 -97 259 -92 428 4 119 8 146 37
230 64 190 181 339 353 450 184 119 483 261 723 343 347 119 572 155 1161 186
233 12 282 35 346 158 32 61 118 287 118 310 0 13 -193 92 -252 103 -32 6
-1610 10 -4238 10 l-4187 0 -7 -107 c-7 -109 4 -235 24 -289 30 -77 98 -127
216 -158 33 -9 215 -42 405 -75 818 -142 1157 -228 1534 -389 214 -91 673
-310 721 -342 76 -53 142 -138 204 -265 118 -243 153 -387 153 -635 1 -231
-37 -428 -139 -730 -296 -873 -667 -1382 -1226 -1679 -224 -119 -582 -243
-908 -315 -436 -96 -981 -114 -1480 -50 -329 42 -725 134 -1100 256 -297 96
-539 226 -825 442 -197 148 -793 636 -915 748 -449 414 -826 928 -1125 1533
-194 393 -309 685 -565 1435 -271 795 -406 1141 -595 1525 -263 534 -544 938
-881 1265 -146 142 -242 220 -387 317 -256 170 -535 278 -852 329 -162 27
-489 25 -745 -5 -151 -17 -681 -88 -937 -125 l-33 -5 0 77 c0 126 20 400 36
507 50 322 148 536 344 750 130 142 155 223 104 330 -10 22 -94 118 -187 215
-93 96 -198 213 -234 260 -241 319 -204 554 151 953 127 143 334 289 571 403
316 152 658 236 1135 279 286 26 345 44 384 120 18 35 21 61 24 197 l4 157
-24 5 c-38 8 -645 46 -888 57 -313 13 -3882 19 -5100 8z"/>
<path d="M26400 45359 c-606 -63 -1199 -328 -1603 -718 l-108 -104 48 -30
c217 -136 643 -242 1113 -278 202 -15 725 -6 920 16 611 68 1129 235 1349 432
l42 38 -70 81 c-268 311 -695 515 -1180 564 -120 12 -388 11 -511 -1z"/>
<path d="M49005 45359 c-418 -27 -778 -162 -1021 -383 -65 -58 -153 -169 -199
-248 l-27 -47 69 -44 c343 -222 895 -365 1563 -407 667 -41 1350 59 1740 255
49 24 91 48 94 53 7 11 -82 97 -189 182 -553 439 -1333 685 -2030 639z"/>
<path d="M8975 44951 c-661 -98 -1010 -187 -1365 -346 -316 -142 -413 -259
-412 -500 1 -341 144 -449 597 -449 182 -1 275 15 417 68 189 71 243 115 593
477 103 107 400 365 677 588 54 44 77 68 74 80 -3 9 -8 28 -11 42 -6 24 -14
28 -108 47 -165 35 -182 34 -462 -7z"/>
<path d="M66450 44953 c-52 -13 -96 -26 -98 -28 -2 -1 -9 -26 -17 -54 l-13
-52 97 -49 c275 -137 478 -311 866 -742 72 -79 156 -166 187 -193 163 -140
387 -207 643 -191 141 9 362 50 423 78 64 31 126 97 154 166 20 49 23 73 22
182 -1 102 -5 136 -22 184 -51 139 -128 217 -302 305 -366 187 -793 300 -1470
391 -269 36 -343 37 -470 3z"/>
<path d="M63280 44764 c-330 -15 -732 -75 -950 -140 -176 -53 -335 -157 -437
-286 -42 -53 -143 -209 -143 -222 0 -2 82 -6 183 -9 248 -8 402 -40 614 -128
221 -92 402 -209 680 -440 83 -70 186 -148 228 -174 155 -97 347 -164 595
-209 527 -94 1064 -98 2065 -16 132 11 274 22 315 25 203 16 352 55 461 121
90 54 90 53 23 136 -236 296 -501 513 -819 669 -162 79 -432 182 -830 315
-601 200 -1045 306 -1440 343 -125 12 -433 20 -545 15z"/>
<path d="M12240 44754 c-425 -29 -696 -71 -1071 -165 -448 -112 -1045 -338
-1439 -545 -319 -168 -565 -380 -734 -634 l-57 -84 53 -28 c123 -63 133 -65
570 -102 1487 -127 1902 -135 2288 -45 427 99 778 283 1107 582 142 129 225
171 554 283 218 73 272 85 563 130 36 6 38 8 32 36 -12 63 -72 163 -131 224
-76 77 -163 125 -326 180 -239 80 -436 122 -709 149 -149 15 -587 27 -700 19z"/>
<path d="M11805 10369 c-162 -21 -342 -89 -459 -173 -316 -226 -492 -622 -563
-1266 -17 -155 -18 -308 -18 -2475 0 -2171 1 -2320 18 -2475 23 -203 49 -351
87 -496 168 -635 542 -955 1115 -954 300 1 550 101 734 295 255 269 393 696
431 1330 14 235 13 4367 0 4580 -20 298 -66 557 -140 779 -160 476 -431 761
-803 842 -87 19 -306 26 -402 13z"/>
<path d="M43235 10369 c-223 -29 -412 -118 -568 -268 -261 -252 -403 -638
-459 -1246 -10 -109 -13 -642 -13 -2410 0 -2357 0 -2349 41 -2635 122 -849
515 -1278 1174 -1280 280 0 517 85 693 250 259 242 393 580 464 1165 17 141
18 294 18 2485 0 1837 -3 2360 -13 2450 -89 796 -371 1290 -823 1446 -142 48
-340 65 -514 43z"/>
<path d="M49540 8515 l0 -1697 94 89 c153 147 434 361 946 723 283 199 358
261 491 397 332 341 476 735 438 1198 -23 285 -105 495 -258 658 -149 158
-331 248 -611 303 -70 14 -175 17 -592 21 l-508 5 0 -1697z"/>
</g>
</svg>
